<?xml version="1.0" standalone="no"?>
<!DOCTYPE svg PUBLIC "-//W3C//DTD SVG 20010904//EN"
 "http://www.w3.org/TR/2001/REC-SVG-20010904/DTD/svg10.dtd">
<svg version="1.0" xmlns="http://www.w3.org/2000/svg"
 width="815.000000pt" height="1280.000000pt" viewBox="0 0 815.000000 1280.000000"
 preserveAspectRatio="xMidYMid meet">
<metadata>
Created by potrace 1.15, written by Peter Selinger 2001-2017
</metadata>
<g transform="translate(0.000000,1280.000000) scale(0.100000,-0.100000)"
fill="#000000" stroke="none">
<path d="M4478 12594 l-116 -156 -15 69 c-9 37 -21 96 -28 131 -22 114 -21 56
1 -86 l22 -139 -127 -169 c-70 -93 -133 -168 -140 -168 -7 1 -11 -4 -8 -12 2
-7 -11 -33 -30 -58 l-34 -45 -308 380 c-169 208 -310 379 -313 379 -2 0 7 -15
20 -32 46 -61 530 -752 534 -762 5 -12 -187 -91 -205 -85 -6 2 -41 33 -77 69
-37 36 -63 58 -58 50 5 -8 26 -41 47 -72 20 -31 37 -61 37 -66 0 -7 -328 -138
-567 -226 -45 -16 -81 -32 -79 -34 2 -2 68 17 146 42 l142 46 233 -40 c128
-22 239 -40 247 -40 7 -1 -3 -9 -23 -20 -20 -10 -76 -24 -125 -31 -118 -15
-242 -52 -329 -97 -132 -69 -342 -304 -425 -476 -49 -102 -72 -194 -105 -421
-44 -305 -97 -537 -205 -910 -22 -77 -70 -246 -105 -375 -36 -129 -92 -309
-126 -400 -165 -441 -185 -521 -199 -780 -12 -218 -19 -278 -66 -550 -44 -255
-61 -365 -69 -455 -11 -129 -17 -165 -26 -165 -4 0 -34 10 -65 21 -146 55
-225 201 -254 471 -13 125 -13 572 0 753 20 273 57 525 115 800 19 88 39 189
45 225 14 94 12 390 -5 650 -10 144 -15 333 -13 525 3 366 -6 423 -90 534
l-25 34 22 19 c13 10 26 18 30 18 3 0 40 -79 80 -175 41 -96 76 -173 78 -172
1 2 -27 84 -62 183 -36 98 -65 180 -65 182 0 1 15 2 33 2 25 0 47 -12 93 -52
l59 -52 -53 56 -54 55 149 12 c81 7 153 14 158 17 6 2 -66 1 -160 -2 l-170 -6
-23 25 -24 25 37 159 c20 87 42 161 48 166 7 4 47 28 90 52 42 25 77 48 77 51
0 3 -37 -14 -82 -39 -46 -24 -145 -77 -220 -116 l-137 -72 -10 38 c-35 132
-35 132 -15 156 l19 22 -22 -19 c-17 -14 -23 -16 -23 -5 0 8 54 42 120 77 66
35 120 66 120 68 0 3 -54 -23 -120 -57 -66 -34 -122 -60 -123 -58 -2 2 -14 51
-26 109 -23 101 -48 183 -35 113 3 -17 13 -78 23 -135 l18 -103 -54 -28 c-30
-16 -57 -26 -60 -23 -14 13 -14 85 0 119 19 43 14 49 -7 10 l-14 -28 -6 35
c-21 112 -34 173 -35 155 -1 -20 21 -157 39 -248 16 -76 14 -87 -15 -87 -29 0
-31 10 -9 51 8 17 13 36 11 42 -2 7 -13 -9 -25 -35 -18 -42 -25 -48 -51 -48
-37 0 -38 5 -8 50 41 62 69 110 63 110 -3 0 -28 -34 -56 -75 -52 -76 -64 -84
-115 -69 -11 3 -32 23 -46 43 l-27 38 19 79 c31 132 16 104 -26 -45 -21 -78
-42 -141 -45 -141 -4 0 -37 36 -74 80 -38 44 -70 80 -73 80 -2 0 29 -43 70
-96 50 -65 73 -103 70 -115 -3 -11 -7 -19 -10 -19 -2 0 -45 36 -94 80 -49 44
-92 80 -95 80 -3 0 36 -41 87 -91 102 -99 105 -99 -104 25 -71 42 -132 76
-135 76 -4 0 25 -21 63 -46 39 -26 111 -76 162 -110 l92 -64 -53 -50 c-30 -28
-76 -62 -102 -76 -27 -13 -38 -22 -24 -19 l25 6 -25 -23 c-14 -13 -45 -40 -70
-60 -74 -64 -36 -42 64 36 91 71 209 128 227 109 4 -5 14 -25 23 -45 l15 -38
-92 -29 c-107 -34 -105 -40 2 -11 40 12 75 19 77 18 2 -2 -44 -32 -101 -66
-68 -41 -110 -60 -122 -56 -13 4 -15 3 -4 -4 10 -7 4 -15 -28 -33 -22 -12 -39
-25 -36 -27 2 -2 20 6 40 18 30 18 38 20 51 9 13 -11 15 -10 12 5 -2 13 24 32
110 78 121 64 152 72 50 12 -93 -54 -169 -118 -304 -256 -106 -108 -126 -134
-168 -218 -31 -62 -57 -136 -76 -215 -27 -114 -38 -188 -76 -540 -8 -82 -35
-242 -59 -355 -24 -113 -65 -333 -90 -490 -41 -254 -76 -438 -120 -640 -17
-79 -40 -244 -55 -400 -27 -288 -44 -404 -85 -595 -36 -169 -43 -376 -21 -710
9 -143 21 -336 26 -430 13 -230 43 -320 161 -477 55 -74 352 -363 439 -428
136 -102 419 -219 715 -297 102 -27 306 -24 395 5 35 12 65 20 66 19 2 -1 -6
-47 -17 -102 -46 -239 -86 -517 -113 -795 -33 -327 -37 -533 -34 -1460 l3
-925 33 -90 c19 -49 98 -216 177 -370 79 -154 151 -302 160 -330 53 -156 33
-253 -64 -316 l-25 -16 27 -45 c49 -84 157 -177 272 -235 119 -60 397 -142
678 -198 80 -17 87 -20 87 -42 0 -14 6 -23 15 -23 8 0 15 8 15 19 0 17 3 18
63 4 186 -44 403 45 920 376 84 53 192 119 241 146 100 56 156 105 156 137 0
12 -19 39 -43 63 -80 76 -77 33 -35 635 32 470 40 547 62 630 14 52 38 174 53
270 23 153 27 206 27 420 1 219 -1 255 -21 335 -58 238 -73 435 -73 942 l0
393 38 -16 c140 -61 293 -114 407 -140 70 -17 125 -19 455 -19 460 0 530 8
880 95 336 84 441 131 561 250 41 41 90 96 107 121 43 64 345 636 416 789 32
69 82 197 111 285 29 88 94 250 145 360 140 303 189 437 210 573 20 124 3 189
-81 304 -59 81 -61 74 41 131 l49 28 31 -103 c18 -57 36 -114 41 -128 l9 -25
-4 25 c-6 38 -44 204 -52 225 -7 17 -1 18 139 11 81 -4 147 -5 147 -3 0 2 -62
10 -137 16 -76 7 -140 14 -142 16 -3 4 48 166 55 174 2 2 15 -10 29 -25 l26
-29 -24 38 c-24 36 -24 41 -11 73 8 19 12 34 9 34 -3 0 -11 -14 -17 -31 l-10
-31 -29 44 -29 43 88 6 87 5 -70 3 c-112 5 -121 9 -164 74 l-39 59 34 94 c19
53 31 93 26 91 -4 -3 -21 -42 -37 -86 -17 -45 -32 -81 -35 -80 -8 0 -112 160
-108 165 7 6 536 194 547 194 5 0 12 4 15 9 3 4 -126 -29 -286 -75 -160 -46
-293 -83 -294 -81 -2 1 -6 136 -10 300 -4 163 -9 295 -11 293 -2 -2 -9 -136
-14 -297 -6 -162 -12 -295 -13 -296 -2 -3 -320 87 -324 92 -3 2 32 62 77 132
153 243 151 247 -12 19 -106 -148 -126 -161 -152 -103 -12 28 -13 29 -9 5 6
-25 4 -26 -23 -19 -15 4 -27 12 -25 17 1 5 28 40 60 79 98 118 98 124 1 22
-90 -94 -95 -98 -129 -92 -34 5 -34 5 -7 -6 31 -12 34 -21 11 -40 -14 -11 -19
-9 -35 11 -10 14 -19 28 -19 32 0 4 47 77 105 163 58 85 104 155 101 155 -2 0
-55 -65 -116 -145 -62 -80 -115 -145 -119 -144 -3 0 -42 45 -86 100 -44 55
-87 106 -95 112 -17 14 -21 20 66 -98 33 -44 69 -94 81 -110 l21 -30 -23 -28
-22 -29 -93 146 c-93 147 -127 191 -72 94 110 -194 142 -252 142 -263 0 -6 -8
-19 -18 -28 -17 -16 -27 -5 -177 190 -88 113 -170 218 -183 232 -21 24 215
-332 280 -423 16 -22 25 -43 21 -46 -5 -4 -111 -44 -238 -89 -361 -129 -371
-136 -70 -48 172 50 286 77 322 77 9 0 13 -15 13 -45 0 -44 -1 -46 -42 -64
-32 -13 -69 -18 -143 -18 -123 0 -187 -14 -290 -63 -227 -110 -429 -378 -720
-959 -178 -357 -269 -498 -388 -606 -85 -77 -150 -107 -246 -113 -92 -5 -409
33 -428 52 -3 3 11 76 31 163 21 87 66 284 102 438 153 669 235 877 518 1320
57 88 144 223 193 300 130 203 227 377 310 556 234 507 312 815 298 1189 -14
388 -34 500 -115 660 -27 52 -48 118 -70 215 -17 77 -33 146 -36 153 -3 12 36
13 228 8 128 -4 271 -8 318 -11 173 -9 14 13 -262 36 -153 13 -278 27 -278 31
0 13 113 333 122 344 4 6 42 17 84 24 42 6 73 14 70 17 -3 3 -35 0 -72 -6 -36
-7 -68 -10 -71 -8 -2 2 12 49 31 103 20 54 34 99 32 101 -2 2 -23 -43 -47
-101 -32 -78 -48 -106 -63 -110 -43 -10 -476 -59 -481 -54 -3 2 -12 53 -21
111 -20 128 -30 135 -15 11 6 -48 10 -88 8 -90 -15 -12 -46 -10 -64 5 l-22 19
19 158 c11 87 20 161 20 166 0 4 35 28 78 52 91 54 87 62 -5 11 -35 -19 -65
-35 -67 -35 -3 0 13 123 17 125 5 4 246 144 300 174 108 61 57 41 -113 -44
-93 -47 -172 -85 -176 -85 -3 0 -4 15 -2 33 3 30 9 35 108 84 107 53 130 70
43 32 -26 -11 -70 -30 -97 -40 l-48 -20 5 58 c5 53 5 55 -4 18 -6 -22 -12 -50
-14 -61 -4 -17 -47 -39 -227 -112 -122 -51 -223 -91 -224 -89 -1 1 -21 133
-43 292 -22 160 -45 317 -50 350 -10 59 -10 59 -6 -25 8 -153 35 -525 40 -544
2 -10 0 -15 -4 -10 -5 5 -18 59 -31 119 -23 114 -37 152 -27 76 5 -44 5 -45
-76 -133 -81 -87 -111 -105 -121 -70 -3 9 -30 131 -61 271 l-55 254 52 81 c28
45 77 119 108 166 66 99 72 110 67 110 -2 0 -56 -70 -119 -156z m-93 -483 c20
-134 35 -244 33 -246 -2 -2 -42 4 -90 12 l-87 16 20 31 21 31 -29 -30 c-19
-21 -35 -29 -51 -27 -27 4 -77 75 -68 97 4 10 2 14 -5 9 -7 -4 -10 -1 -7 7 3
8 10 13 16 12 5 -1 9 3 8 10 -1 11 196 327 201 323 1 -1 19 -111 38 -245z
m326 -201 c10 -66 11 -100 4 -100 -5 0 -45 7 -88 15 -43 8 -81 15 -84 15 -6 0
140 169 147 170 3 0 12 -45 21 -100z m-612 36 c-7 -14 -16 -26 -21 -26 -12 0
-10 8 8 36 21 31 29 25 13 -10z m39 -11 c12 -25 6 -30 -21 -19 -9 3 -13 13
-10 25 7 26 18 24 31 -6z m1103 -7 c-6 -31 -16 -38 -190 -126 l-185 -93 -18
23 c-10 13 -17 25 -17 28 1 7 391 199 405 199 8 1 9 -10 5 -31z m-1084 -34
c-3 -3 -12 -4 -19 -1 -8 3 -5 6 6 6 11 1 17 -2 13 -5z m48 -14 c3 -5 1 -10 -4
-10 -6 0 -11 5 -11 10 0 6 2 10 4 10 3 0 8 -4 11 -10z m-496 -55 c-3 -2 -16
10 -29 28 l-23 32 29 -27 c15 -15 26 -30 23 -33z m634 24 c67 -16 87 -25 87
-38 0 -15 -14 -13 -105 18 -58 20 -105 40 -105 44 0 5 8 6 18 3 9 -3 56 -15
105 -27z m-386 -161 l-20 -37 -46 38 c-25 22 -59 53 -75 70 -33 35 -39 30 78
66 l71 22 6 -61 c6 -51 3 -67 -14 -98z m191 132 c10 -5 -4 -27 -47 -79 l-61
-73 0 60 c0 34 4 72 10 87 9 24 13 25 47 19 21 -4 44 -10 51 -14z m1072 10 c0
-5 -5 -32 -11 -60 l-11 -51 -109 -54 c-60 -30 -115 -55 -122 -55 -7 0 -24 12
-38 26 -20 21 -22 27 -9 34 8 5 76 45 150 89 139 82 150 88 150 71z m-972
-108 c24 -46 42 -85 40 -88 -14 -14 -135 -35 -171 -29 -83 13 -82 8 -9 110 39
56 73 93 82 92 8 -1 35 -39 58 -85z m479 22 c2 -5 -2 -18 -9 -27 -12 -16 -19
-15 -108 14 -105 35 -115 41 -107 62 5 13 22 11 113 -12 59 -15 109 -31 111
-37z m-421 36 c16 -5 49 -14 73 -20 l44 -11 -44 -45 c-24 -24 -46 -44 -49 -44
-3 0 -12 12 -21 28 -9 15 -26 44 -38 65 -25 41 -19 45 35 27z m-468 -80 c69
-75 71 -80 51 -90 -11 -7 -22 -10 -24 -8 -12 13 -125 169 -125 173 0 20 36 -7
98 -75z m-68 -12 l52 -81 -79 6 c-219 19 -395 41 -377 48 10 4 80 26 154 49
74 23 146 45 160 50 14 5 28 9 31 9 4 1 30 -36 59 -81z m680 -8 c0 -43 -6 -48
-35 -26 -18 13 -18 14 1 39 26 36 34 33 34 -13z m159 19 c42 -12 78 -23 80
-25 2 -2 -2 -16 -8 -32 -14 -34 -86 -73 -115 -62 -14 4 -24 23 -33 61 -14 63
-16 79 -6 79 4 0 41 -9 82 -21z m199 -21 c-22 -13 -28 -9 -28 19 0 26 0 26 20
8 16 -14 17 -20 8 -27z m377 -30 c-4 -24 -16 -92 -28 -151 l-22 -108 -70 85
c-38 47 -71 89 -72 93 -2 8 174 121 190 122 5 1 5 -18 2 -41z m-725 -49 c0
-18 -2 -19 -37 -3 -21 9 -44 18 -51 21 -10 4 -9 9 3 23 16 18 18 18 51 -2 20
-12 34 -28 34 -39z m420 -3 c0 -25 -6 -38 -26 -51 -29 -19 -38 -13 -48 27 -5
21 -1 30 16 42 38 27 58 21 58 -18z m38 -14 c2 -7 -3 -12 -12 -12 -9 0 -16 7
-16 16 0 17 22 14 28 -4z m-845 1 c-7 -2 -19 -2 -25 0 -7 3 -2 5 12 5 14 0 19
-2 13 -5z m229 -5 c-8 -8 -17 -8 -34 0 -22 10 -21 11 12 11 26 1 31 -2 22 -11z
m93 -8 c41 -19 31 -25 -24 -14 -17 4 -31 13 -31 20 0 18 6 17 55 -6z m375 -32
c0 -15 -9 -18 -45 -18 -25 0 -45 3 -45 8 0 4 17 16 38 27 38 22 52 17 52 -17z
m-905 2 c4 -6 -9 -10 -32 -9 -30 0 -34 2 -18 9 27 12 43 12 50 0z m62 4 c-3
-3 -12 -4 -19 -1 -8 3 -5 6 6 6 11 1 17 -2 13 -5z m1116 -88 c83 -91 104 -126
72 -126 -8 0 -62 22 -120 49 l-105 50 0 43 c0 37 4 46 28 60 15 10 29 18 32
18 4 0 45 -42 93 -94z m-863 48 c58 -9 110 -21 115 -27 6 -6 3 -7 -10 -4 -42
12 -188 37 -216 37 -16 0 -29 5 -29 11 0 6 8 8 18 5 9 -2 64 -12 122 -22z
m690 -25 c0 -18 -2 -20 -15 -9 -13 11 -13 15 -3 21 18 12 18 12 18 -12z m-130
-17 c42 -27 4 -25 -47 3 -47 25 -47 25 -13 19 19 -3 46 -13 60 -22z m-290 -19
c0 -10 -6 -13 -16 -9 -9 4 -36 11 -60 17 -65 17 -54 27 16 16 42 -7 60 -14 60
-24z m239 6 c55 -23 56 -25 41 -65 l-11 -27 -49 48 c-72 71 -68 80 19 44z
m-3546 -41 c13 -20 14 -28 5 -28 -26 0 -40 17 -33 40 4 12 8 20 9 18 1 -2 10
-15 19 -30z m400 2 c6 -22 -8 -37 -16 -18 -3 7 -6 3 -6 -9 -1 -30 -13 -34 -40
-14 l-23 18 33 21 c43 26 46 26 52 2z m3289 4 c29 -15 30 -18 26 -65 -3 -27
-7 -52 -10 -54 -3 -3 -26 4 -51 15 l-46 20 22 50 c12 27 23 50 25 50 2 0 17
-7 34 -16z m-287 -4 c3 -5 1 -10 -4 -10 -6 0 -11 5 -11 10 0 6 2 10 4 10 3 0
8 -4 11 -10z m-3388 -40 c6 0 21 -16 32 -36 20 -33 20 -38 6 -54 -36 -39 -107
10 -98 68 5 29 9 33 27 28 11 -3 26 -6 33 -6z m3822 -71 c1 -8 -89 -22 -96
-16 -2 3 -1 26 2 51 l7 46 43 -37 c24 -21 44 -41 44 -44z m-3741 42 c-7 -9
-14 -18 -15 -20 -3 -5 -32 30 -33 40 0 3 14 4 30 1 26 -4 29 -7 18 -21z m319
-44 c-3 -7 -9 4 -14 23 -6 19 -8 39 -5 45 7 12 25 -53 19 -68z m3648 64 c3 -5
1 -12 -5 -16 -5 -3 -10 1 -10 9 0 18 6 21 15 7z m518 -160 c-37 -89 -71 -161
-74 -161 -10 0 -179 131 -179 139 0 4 54 33 120 66 65 32 118 60 117 62 -2 1
-59 -22 -128 -52 -68 -30 -129 -55 -135 -55 -6 0 -34 18 -63 39 l-53 40 39 7
c21 4 124 23 228 44 105 20 192 36 193 34 2 -1 -27 -75 -65 -163z m-4393 145
c0 -15 -46 -86 -56 -86 -26 0 -37 28 -24 60 10 25 18 30 46 30 19 0 34 -2 34
-4z m163 -3 c3 -5 -11 -26 -30 -48 l-35 -40 23 48 c22 45 33 55 42 40z m356
-34 c-10 -31 -23 -41 -101 -82 -71 -37 -94 -45 -105 -36 -7 7 -11 15 -7 18 8
8 218 138 221 136 1 0 -2 -17 -8 -36z m3431 25 c0 -8 -4 -13 -9 -10 -5 4 -22
1 -37 -4 -19 -8 -30 -8 -38 0 -10 10 5 14 42 13 6 -1 12 3 12 8 0 5 7 9 15 9
8 0 15 -7 15 -16z m-3868 0 l37 -6 -16 -33 c-14 -30 -21 -34 -64 -37 -27 -1
-49 1 -49 5 0 4 7 23 14 42 16 37 20 38 78 29z m118 -34 c6 -12 10 -31 8 -43
-3 -20 -7 -21 -46 -17 l-42 5 25 38 c29 42 40 45 55 17z m3545 -23 c11 -8 14
-16 8 -20 -6 -4 -18 2 -28 13 -21 23 -8 27 20 7z m-3971 -12 c3 -9 0 -15 -9
-15 -8 0 -15 7 -15 15 0 8 4 15 9 15 5 0 11 -7 15 -15z m465 -18 c0 -21 -1
-21 -9 -2 -12 28 -12 37 0 30 6 -3 10 -16 9 -28z m3470 3 c19 -16 21 -23 11
-35 -10 -12 -19 -11 -63 12 -45 22 -49 27 -32 34 33 13 59 9 84 -11z m251 -17
c0 -21 3 -48 6 -60 6 -20 3 -23 -25 -23 -27 0 -34 6 -56 49 l-25 50 21 6 c16
5 27 0 45 -21 13 -16 23 -24 24 -18 0 6 -7 17 -15 24 -17 14 -11 30 11 30 10
0 14 -12 14 -37z m86 -65 c-43 -24 -44 -23 -51 20 -3 20 -8 48 -11 61 -4 21 1
19 44 -20 l50 -44 -32 -17z m-3572 -12 c-22 -75 -31 -93 -41 -84 -7 5 -11 14
-8 18 2 3 -15 24 -38 46 l-42 39 40 -45 40 -45 -42 39 c-24 22 -40 42 -37 45
12 12 149 89 153 85 2 -2 -9 -46 -25 -98z m-544 58 c0 -12 -6 -15 -22 -10 -13
3 -29 6 -35 6 -7 0 -13 5 -13 10 0 6 16 10 35 10 26 0 35 -4 35 -16z m117 8
c16 -10 -10 -52 -32 -52 -18 0 -45 28 -45 46 0 15 56 20 77 6z m-277 -23 c0
-6 -4 -7 -10 -4 -5 3 -10 11 -10 16 0 6 5 7 10 4 6 -3 10 -11 10 -16z m4070
-33 c0 -5 -11 1 -25 14 -13 12 -22 27 -18 33 6 10 42 -30 43 -47z m-3657 38
c33 -6 37 -10 37 -35 0 -38 -19 -37 -84 1 l-51 31 33 -28 33 -28 -46 3 c-50 4
-52 7 -29 40 16 23 40 27 107 16z m-453 -12 c0 -8 -63 -42 -77 -42 -4 0 8 11
27 25 35 26 50 31 50 17z m158 -8 c24 -7 26 -12 12 -34 -7 -12 -12 -12 -29 4
-34 31 -28 42 17 30z m3902 -4 c12 -8 11 -10 -7 -10 -13 0 -23 5 -23 10 0 13
11 13 30 0z m-3978 -17 c24 -21 25 -86 1 -81 -17 3 -47 74 -37 89 8 13 15 11
36 -8z m469 -6 c-13 -13 -26 -3 -16 12 3 6 11 8 17 5 6 -4 6 -10 -1 -17z
m-302 -21 c-9 -8 -49 -17 -49 -11 0 3 5 15 10 26 10 18 12 18 27 4 8 -9 14
-17 12 -19z m4219 -57 l93 -82 -47 -33 c-26 -19 -51 -34 -55 -34 -4 0 -38 35
-76 78 -105 118 -100 108 -56 131 21 11 40 20 43 21 3 0 47 -37 98 -81z
m-3790 -16 c23 -20 31 -34 27 -45 -6 -16 -9 -16 -41 -1 -19 9 -34 20 -34 25 0
4 -6 8 -13 8 -7 0 -28 16 -47 35 -33 34 -33 35 -15 49 21 15 20 15 123 -71z
m-281 63 c34 -7 65 -11 69 -7 3 3 5 -3 2 -14 -5 -29 -36 -29 -101 -1 -86 38
-77 45 30 22z m-262 -16 c3 -5 1 -10 -4 -10 -6 0 -11 5 -11 10 0 6 2 10 4 10
3 0 8 -4 11 -10z m4089 2 c2 -4 1 -14 -4 -21 -6 -11 -10 -9 -19 8 -10 17 -9
21 3 21 8 0 17 -4 20 -8z m-3699 -32 c3 -5 -1 -10 -10 -10 -9 0 -13 5 -10 10
3 6 8 10 10 10 2 0 7 -4 10 -10z m3819 -67 c45 -43 83 -81 84 -86 2 -4 -29 16
-70 45 -40 29 -84 60 -96 68 -16 10 -21 20 -17 33 4 9 10 17 13 17 3 0 42 -35
86 -77z m-4106 60 c-10 -2 -26 -2 -35 0 -10 3 -2 5 17 5 19 0 27 -2 18 -5z
m-78 -12 c0 -5 -9 -11 -20 -14 -22 -6 -28 8 -7 16 19 8 27 8 27 -2z m265 -6
c39 -17 21 -18 -25 0 -19 7 -28 14 -20 14 8 0 29 -6 45 -14z m178 -31 c20 -13
37 -26 37 -29 0 -4 -141 52 -148 60 -15 15 80 -12 111 -31z m46 -46 l24 -9
-23 -23 -22 -24 -45 34 c-25 19 -59 42 -74 50 -16 8 -29 19 -29 24 0 8 56 -9
169 -52z m111 16 c0 -2 -7 -4 -15 -4 -8 0 -15 4 -15 10 0 5 7 7 15 4 8 -4 15
-8 15 -10z m3855 -131 c14 -49 30 -98 35 -110 5 -13 9 -23 7 -23 -1 0 -41 37
-89 83 l-87 82 47 27 c26 15 50 28 54 28 4 0 18 -39 33 -87z m1386 -2945 c5
-20 0 -36 -19 -63 l-26 -36 -23 28 c-57 67 -58 71 -33 98 20 22 25 22 58 11
25 -9 38 -21 43 -38z m-178 18 c15 -22 14 -25 -12 -50 l-27 -26 -13 24 c-11
20 -10 28 4 50 21 32 28 32 48 2z m207 -17 c0 -5 -4 -9 -10 -9 -5 0 -10 7 -10
16 0 8 5 12 10 9 6 -3 10 -10 10 -16z m156 -46 c57 -21 104 -41 104 -45 0 -3
-28 -22 -62 -41 -44 -25 -65 -32 -70 -24 -6 9 -8 9 -8 0 0 -7 -7 -13 -15 -13
-23 0 -18 9 28 52 l42 39 -54 -39 c-66 -49 -90 -45 -110 17 -11 36 -11 44 3
66 9 14 21 25 27 25 6 0 58 -17 115 -37z m-292 -36 c15 -21 26 -41 23 -43 -4
-4 -82 30 -95 41 -2 2 4 15 14 30 9 14 20 22 24 18 3 -4 19 -25 34 -46z m-146
2 c-16 -10 -33 5 -23 21 5 8 11 8 21 -1 12 -10 12 -14 2 -20z m276 -48 c-2 -2
-10 -1 -19 3 -13 5 -13 9 -3 26 13 20 13 20 19 -2 3 -13 4 -25 3 -27z m366 0
c0 -3 -16 -27 -35 -53 l-35 -47 -53 18 c-30 11 -63 21 -73 23 -14 3 -1 16 51
49 70 45 70 45 107 31 21 -8 38 -18 38 -21z m-632 -33 c3 -22 -2 -30 -23 -38
-36 -14 -35 -15 -35 31 0 38 1 40 28 37 21 -2 28 -9 30 -30z m67 2 c3 -5 -3
-10 -15 -10 -12 0 -18 5 -15 10 3 6 10 10 15 10 5 0 12 -4 15 -10z m677 -83
l65 -83 -15 -40 c-8 -21 -16 -41 -18 -43 -6 -8 -174 121 -169 130 8 12 45 11
84 -2 18 -6 34 -9 38 -6 3 3 -14 11 -36 17 -23 6 -39 15 -36 20 3 6 -1 7 -9 4
-9 -3 -23 -3 -32 0 -12 5 -9 13 17 46 18 22 35 40 39 40 4 0 36 -37 72 -83z
m-462 63 c0 -5 -7 -7 -15 -4 -8 4 -15 8 -15 10 0 2 7 4 15 4 8 0 15 -4 15 -10z
m-116 -6 c9 -3 16 -12 16 -20 0 -11 -18 -14 -77 -14 -83 0 -86 3 -27 24 44 16
65 19 88 10z m181 -14 c-3 -5 -13 -10 -21 -10 -8 0 -14 5 -14 10 0 6 9 10 21
10 11 0 17 -4 14 -10z m-91 -21 c-8 -14 -34 -10 -34 5 0 9 7 12 20 9 11 -3 17
-9 14 -14z m146 -3 c0 -9 -7 -12 -20 -9 -11 3 -17 9 -14 14 8 14 34 10 34 -5z
m81 -2 c56 -9 65 -25 37 -68 -19 -29 -54 -56 -73 -56 -4 0 -25 69 -25 82 0 4
12 3 26 -2 45 -18 50 -9 7 10 -26 11 -43 26 -43 36 0 11 5 14 16 10 9 -3 33
-9 55 -12z m-481 -19 c0 -20 -5 -25 -27 -26 l-28 -2 28 -4 c15 -2 27 -9 27
-15 0 -6 -10 -8 -22 -4 -13 3 -28 6 -35 6 -7 0 -10 9 -8 22 5 26 14 35 40 41
11 3 21 5 23 6 1 0 2 -10 2 -24z m178 1 c10 -10 -2 -13 -80 -19 -75 -6 -78 -6
-78 15 0 20 3 21 76 15 42 -3 79 -8 82 -11z m205 -5 c17 -7 26 -19 29 -40 3
-17 2 -31 -2 -31 -3 0 -24 18 -45 40 -40 41 -34 51 18 31z m-486 -27 c-3 -3
-16 -4 -29 -2 l-23 5 25 10 c23 10 41 1 27 -13z m383 11 c0 -17 -2 -18 -24 -9
-23 9 -20 24 4 24 11 0 20 -7 20 -15z m325 -5 c-3 -5 -10 -10 -16 -10 -5 0 -9
5 -9 10 0 6 7 10 16 10 8 0 12 -4 9 -10z m-415 -47 c0 -27 -3 -34 -15 -29 -9
3 -47 13 -85 22 -96 24 -93 42 8 46 42 2 80 2 85 0 4 -2 7 -19 7 -39z m179 7
c56 -44 60 -50 33 -50 -31 0 -112 57 -106 75 9 22 17 19 73 -25z m-109 -10 c0
-13 -7 -20 -20 -20 -16 0 -20 7 -20 30 0 28 2 30 20 20 11 -6 20 -20 20 -30z
m428 -55 c34 -27 61 -53 61 -57 1 -4 -28 -28 -64 -54 -64 -45 -66 -46 -85 -29
-15 14 -20 32 -21 74 -2 51 -2 52 -8 18 l-6 -39 -29 31 c-17 17 -35 31 -40 31
-6 0 9 -18 34 -40 25 -21 40 -39 35 -40 -20 0 -83 74 -76 91 9 24 43 63 70 81
28 20 20 24 129 -67z m-372 40 c18 -14 18 -14 -8 -15 -18 0 -28 5 -28 15 0 19
11 19 36 0z m-71 -25 c3 -5 -1 -10 -9 -10 -9 0 -16 5 -16 10 0 6 4 10 9 10 6
0 13 -4 16 -10z m635 -62 c0 -10 -52 -10 -68 0 -9 7 -10 16 -1 41 l11 32 29
-33 c15 -18 28 -36 29 -40z m-532 53 c56 -11 65 -21 53 -54 l-10 -25 -65 35
c-93 49 -85 64 22 44z m93 -38 c-5 -10 -17 -27 -25 -38 -14 -17 -14 -14 1 18
9 20 21 37 25 37 5 0 4 -8 -1 -17z m128 -149 c-1 -30 -6 -51 -11 -48 -5 3 -7
8 -4 11 3 4 -94 92 -133 119 -2 2 7 16 20 32 l24 29 52 -45 c52 -44 53 -45 52
-98z m374 54 l39 -50 -37 -89 c-21 -49 -44 -89 -51 -89 -17 0 -40 36 -48 75
-6 27 -3 32 21 42 l28 11 -30 -5 c-31 -5 -31 -5 -48 69 -10 40 -17 76 -17 81
0 4 24 7 53 6 51 0 53 -2 90 -51z m-144 -40 c13 -37 20 -72 17 -77 -15 -24
-48 -17 -98 21 l-53 40 44 -41 c24 -23 42 -43 40 -44 -2 -2 -30 -13 -62 -24
l-57 -21 -20 28 c-11 16 -20 43 -20 62 0 31 6 36 87 85 48 29 90 49 94 45 4
-4 16 -37 28 -74z m-195 1 c-8 -14 -24 -10 -24 6 0 9 6 12 15 9 8 -4 12 -10 9
-15z m235 -137 c1 -9 -6 -8 -24 5 -29 21 -31 30 -7 35 16 4 30 -13 31 -40z
m23 -61 c15 -18 15 -20 0 -34 -28 -23 -113 -79 -116 -75 -35 46 -97 140 -95
143 2 2 29 14 59 28 l55 24 40 -33 c22 -18 48 -42 57 -53z"/>
<path d="M4800 11406 c0 -2 7 -7 16 -10 8 -3 12 -2 9 4 -6 10 -25 14 -25 6z"/>
<path d="M1352 11730 c0 -14 2 -19 5 -12 2 6 2 18 0 25 -3 6 -5 1 -5 -13z"/>
<path d="M5447 6559 c7 -7 15 -10 18 -7 3 3 -2 9 -12 12 -14 6 -15 5 -6 -5z"/>
</g>
</svg>
